<?xml version="1.0" encoding="UTF-8"?>
<svg version="1.1" viewBox="0 0 600 600" xmlns="http://www.w3.org/2000/svg">
 <g transform="scale(1.1719)">
  <path d="m0 256v-256h512v512h-512v-256z" fill="#fafafa"/>
  <path d="m0 256v-256h512v512h-512v-256zm445.59 235.75c1.3615-5.9037 0.72023-35.73-1.0096-46.955-8.4943-55.121-41.02-104.98-87.151-133.59-9.787-6.0701-19.839-11.207-21.931-11.207-0.8567 0-6.607 3.5619-12.779 7.9154-22.759 16.054-51.406 31.745-62.499 34.232-4.0781 0.91433-6.4577 0.91092-10.469-0.015-12.538-2.894-34.256-14.084-58.253-30.012-8.8-5.8412-16.748-10.759-17.663-10.929-3.634-0.67335-25.767 12.726-39.337 23.814-9.1412 7.4698-24.554 23.596-31.557 33.017-19.596 26.364-31.566 55.353-36.381 88.105-1.5631 10.633-2.1188 37.872-0.92052 45.122l0.61984 3.75h378.58l0.74953-3.25zm-239.59-297.69c9.625-0.57291 20.581-1.1831 24.348-1.3559 7.828-0.35928 8.4392-0.86913 13.536-11.292 4.7541-9.7215 6.4434-17.565 6.4434-29.915 0-17.541-4.9878-31.676-14.998-42.503-19.168-20.733-46.796-15.14-60.273 12.2-9.4174 19.105-9.4655 41.457-0.12962 60.303 4.6253 9.3368 9.2629 14.873 11.827 14.118 0.9603-0.28258 9.621-0.98253 19.246-1.5554zm-11.5-41.959c-8.5125-3.9412-13.932-13.317-13.932-24.104 0-14.947 9.815-25.922 23.231-25.978 5.9654-0.0247 10.141 1.7356 15.038 6.34 5.8839 5.5321 7.6379 10.04 7.6417 19.638 4e-3 9.3865-1.2809 12.924-6.8413 18.838-6.6748 7.0993-16.661 9.1914-25.138 5.2665zm20.277-28.661c1.2224-0.85619 2.2225-2.2833 2.2225-3.1713 0-2.3695-2.9909-5.272-5.4325-5.272-2.9622 0-6.5675 2.7448-6.5675 5 0 2.0614 3.5264 5 6 5 0.85524 0 2.5551-0.70052 3.7775-1.5567zm111.39 67.504c8.084-8.498 12.821-21.258 13.531-36.448 0.87689-18.762-4.0064-33-15.111-44.06-8.7561-8.7207-13.845-10.94-25.085-10.94-8.3508 0-9.4554 0.2469-15.313 3.4227-18.853 10.222-29.067 37.102-23.709 62.392 1.5464 7.2983 7.0181 19.397 10.854 24l2.3457 2.8148 20.411 0.95406c11.226 0.52473 21.086 1.1184 21.911 1.3192 4.5018 1.0958 6.4726 0.42583 10.164-3.4551zm-32.664-40.547c-12.985-7.0596-17.763-22.685-10.987-35.933 4.266-8.3415 9.4143-11.794 18.281-12.26 6.0691-0.31866 7.1539-0.0651 11.407 2.6663 5.8394 3.7498 9.4892 9.1403 10.968 16.198 1.4841 7.0848 0.48483 13.207-3.2121 19.681-4.1333 7.2371-9.4072 10.578-17.323 10.973-4.2625 0.21273-7.0486-0.19142-9.1334-1.3249zm15.5-29.401c1.1-1.1 2-2.9 2-4s-0.9-2.9-2-4-2.9-2-4-2-2.9 0.9-4 2-2 2.9-2 4 0.9 2.9 2 4 2.9 2 4 2 2.9-0.9 4-2z" fill="#fbb920"/>
  <path d="m0 256v-256h512v512h-512v-256zm445.59 235.75c1.3615-5.9037 0.72023-35.73-1.0096-46.955-8.4943-55.121-41.02-104.98-87.151-133.59-9.787-6.0701-19.839-11.207-21.931-11.207-0.8567 0-6.607 3.5619-12.779 7.9154-22.759 16.054-51.406 31.745-62.499 34.232-4.0781 0.91433-6.4577 0.91092-10.469-0.015-12.538-2.894-34.256-14.084-58.253-30.012-8.8-5.8412-16.748-10.759-17.663-10.929-3.634-0.67335-25.767 12.726-39.337 23.814-9.1412 7.4698-24.554 23.596-31.557 33.017-19.596 26.364-31.566 55.353-36.381 88.105-1.5631 10.633-2.1188 37.872-0.92052 45.122l0.61984 3.75h378.58l0.74953-3.25zm-172.23-173.54c23.308-11.64 51.492-32.093 70.619-51.248 14.593-14.615 22.076-26.911 20.412-33.541-1.8412-7.3357-18.695-13.132-49.391-16.987-17.033-2.1389-75.431-3.0585-97.107-1.5292-37.912 2.6748-63.572 8.8125-69.806 16.697-6.9116 8.7416 4.6392 27.198 30.584 48.869 20.647 17.246 50.132 35.89 66.792 42.235 9.0592 3.4502 13.38 2.7539 27.897-4.4954zm-67.36-124.15c9.625-0.57291 20.581-1.1831 24.348-1.3559 7.828-0.35928 8.4392-0.86913 13.536-11.292 4.7541-9.7215 6.4434-17.565 6.4434-29.915 0-17.541-4.9878-31.676-14.998-42.503-19.168-20.733-46.796-15.14-60.273 12.2-9.4174 19.105-9.4655 41.457-0.12962 60.303 4.6253 9.3368 9.2629 14.873 11.827 14.118 0.9603-0.28258 9.621-0.98253 19.246-1.5554zm-11.5-41.959c-8.5125-3.9412-13.932-13.317-13.932-24.104 0-14.947 9.815-25.922 23.231-25.978 5.9654-0.0247 10.141 1.7356 15.038 6.34 5.8839 5.5321 7.6379 10.04 7.6417 19.638 4e-3 9.3865-1.2809 12.924-6.8413 18.838-6.6748 7.0993-16.661 9.1914-25.138 5.2665zm20.277-28.661c1.2224-0.85619 2.2225-2.2833 2.2225-3.1713 0-2.3695-2.9909-5.272-5.4325-5.272-2.9622 0-6.5675 2.7448-6.5675 5 0 2.0614 3.5264 5 6 5 0.85524 0 2.5551-0.70052 3.7775-1.5567zm111.39 67.504c8.084-8.498 12.821-21.258 13.531-36.448 0.87689-18.762-4.0064-33-15.111-44.06-8.7561-8.7207-13.845-10.94-25.085-10.94-8.3508 0-9.4554 0.2469-15.313 3.4227-18.853 10.222-29.067 37.102-23.709 62.392 1.5464 7.2983 7.0181 19.397 10.854 24l2.3457 2.8148 20.411 0.95406c11.226 0.52473 21.086 1.1184 21.911 1.3192 4.5018 1.0958 6.4726 0.42583 10.164-3.4551zm-32.664-40.547c-12.985-7.0596-17.763-22.685-10.987-35.933 4.266-8.3415 9.4143-11.794 18.281-12.26 6.0691-0.31866 7.1539-0.0651 11.407 2.6663 5.8394 3.7498 9.4892 9.1403 10.968 16.198 1.4841 7.0848 0.48483 13.207-3.2121 19.681-4.1333 7.2371-9.4072 10.578-17.323 10.973-4.2625 0.21273-7.0486-0.19142-9.1334-1.3249zm15.5-29.401c1.1-1.1 2-2.9 2-4s-0.9-2.9-2-4-2.9-2-4-2-2.9 0.9-4 2-2 2.9-2 4 0.9 2.9 2 4 2.9 2 4 2 2.9-0.9 4-2z" fill="#6c6c72"/>
  <path d="m0 478.18v-33.822l5.104-7.4281c6.8063-9.9055 13.645-18.352 29.951-36.995 49.143-56.184 71.306-95.542 79.362-140.93 2.4018-13.532 3.4428-32.675 4.0788-75 0.3264-21.725 1.0661-44.225 1.6438-50 6.5627-65.603 40.453-104.16 100.85-114.74 13.628-2.387 47.869-2.3076 61.41 0.14249 47.589 8.6106 78.349 33.567 91.99 74.634 6.8449 20.607 8.6072 35.185 8.6214 71.319 0.0185 46.977 3.4009 76.646 11.573 101.51 4.5273 13.775 17.164 39.426 26.916 54.633 14.105 21.997 34.234 47.679 61.697 78.716 7.3175 8.2699 16.792 19.514 21.054 24.987l7.75 9.9506v76.846h-512zm446.67 17.572c1.6818-2.6519 1.5993-36.948-0.11737-48.814-9.013-62.297-45.708-114.97-100.56-144.35-4.675-2.5039-9.3256-4.5601-10.335-4.5693-1.009-9e-3 -7.534 3.9761-14.5 8.8562-15.226 10.667-29.177 19.12-42.665 25.853-13.813 6.8946-19.56 8.6508-26.103 7.9756-10.677-1.1019-35.336-13.514-62.102-31.259-8.6634-5.7434-16.398-10.443-17.188-10.443s-4.8498 1.8635-9.0218 4.1411c-56.351 30.764-93.439 86.388-100.21 150.29-1.3987 13.208-0.68226 39.898 1.1296 42.081 1.0863 1.3089 24.178 1.4889 191.05 1.4889 150.77 0 189.98-0.25717 190.61-1.25zm-181.85-172.37c13.683-5.3776 39.007-21.248 58.671-36.769 13.266-10.471 32.227-29.638 36.711-37.109 4.4016-7.3349 6.166-13.378 4.8875-16.741-3.019-7.9406-18.972-13.462-50.098-17.338-17.199-2.1419-75.801-3.0448-97.206-1.4976-40.149 2.9019-66.986 9.7472-71.358 18.201-3.154 6.0992-0.6597 14.163 7.8702 25.443 13.934 18.426 49.528 45.764 78.694 60.44 17.181 8.6452 21.603 9.3916 31.829 5.3722zm-45.048-128.39c13.659-0.74593 17.92-1.3097 19.294-2.5528 0.9696-0.87747 3.3869-4.6859 5.3718-8.4631 15.887-30.232 5.8824-72.84-20.098-85.597-5.1944-2.5506-6.9118-2.8719-15.349-2.8719-8.9172 0-9.8866 0.20965-15.803 3.4174-8.2878 4.4938-15.302 12.317-20.117 22.437-5.2141 10.958-6.5517 17.113-6.5517 30.145 0 6.05 0.60215 13.475 1.3381 16.5 1.7532 7.2059 8.1658 20.488 12.256 25.385l3.2448 3.8847 9.4418-0.66369c5.193-0.36503 17.331-1.0945 26.972-1.6211zm-22.282-43.046c-4.7595-1.397-10.555-6.8603-13.119-12.368-8.7304-18.749 6.7891-41.031 24.816-35.63 5.4861 1.6437 12.301 8.1787 14.483 13.888 2.0904 5.4704 2.2653 14.059 0.39808 19.552-0.7256 2.1344-2.9525 5.6922-4.9486 7.9063-6.0304 6.6888-13.587 9.0128-21.629 6.652zm129.05 40.909c5.5536-5.1191 11.906-17.57 13.951-27.348 5.6016-26.772-5.9834-55.197-26.449-64.895-5.6348-2.6702-7.6737-3.1046-14.572-3.1046-7.0374 0-8.835 0.40071-14.659 3.2677-11.878 5.8474-22.155 19.797-25.957 35.232-0.77075 3.1291-1.3094 10.242-1.2496 16.5 0.0857 8.9694 0.59055 12.491 2.7348 19.078 2.466 7.5756 8.5276 18.471 11.729 21.082 0.88175 0.71914 10.166 1.6085 24.423 2.3396 12.65 0.64866 23.188 1.3641 23.417 1.5898 0.98023 0.96559 2.3863 0.17236 6.6327-3.7418zm-30.934-43.275c-2.1365-0.78636-5.6154-3.1199-7.7308-5.1856-10.393-10.149-8.645-30.223 3.3221-38.143 3.3472-2.2151 5.2406-2.7138 10.355-2.7276 8.2137-0.0221 13.659 3.5013 17.756 11.489 2.491 4.8563 2.781 6.3732 2.5 13.072-0.26745 6.3747-0.801 8.3602-3.3589 12.5-5.0263 8.1345-14.763 11.968-22.844 8.9944z" fill="#1f1f1f"/>
  <path transform="translate(261.75 25.422)" d="m-49.05 91.066c0.55212 3.0708-1.4897 6.0078-4.5605 6.5599-3.0708 0.55212-6.0078-1.4897-6.5599-4.5605-0.55212-3.0708 1.4897-6.0078 4.5605-6.5599 2.9828-0.53629 5.8573 1.3765 6.5146 4.335" fill="#fff" fill-rule="evenodd" opacity=".92" stroke-opacity="0"/>
  <path transform="translate(356.85 22.881)" d="m-49.05 91.066c0.55212 3.0708-1.4897 6.0078-4.5605 6.5599-3.0708 0.55212-6.0078-1.4897-6.5599-4.5605-0.55212-3.0708 1.4897-6.0078 4.5605-6.5599 2.9828-0.53629 5.8573 1.3765 6.5146 4.335" fill="#fff" fill-rule="evenodd" opacity=".92" stroke-opacity="0"/>
 </g>
</svg>
