<?xml version="1.0" encoding="UTF-8" standalone="no"?>
<!-- Created with Inkscape (http://www.inkscape.org/) -->

<svg
   width="15.999999"
   height="15.999999"
   viewBox="0 0 4.233333 4.233333"
   version="1.1"
   id="svg1"
   inkscape:version="1.3.2 (091e20ef0f, 2023-11-25, custom)"
   sodipodi:docname="penguinfavicon.svg"
   inkscape:export-filename="penguinfavicon.svg"
   inkscape:export-xdpi="96"
   inkscape:export-ydpi="96"
   xmlns:inkscape="http://www.inkscape.org/namespaces/inkscape"
   xmlns:sodipodi="http://sodipodi.sourceforge.net/DTD/sodipodi-0.dtd"
   xmlns="http://www.w3.org/2000/svg"
   xmlns:svg="http://www.w3.org/2000/svg">
  <sodipodi:namedview
     id="namedview1"
     pagecolor="#ffffff"
     bordercolor="#000000"
     borderopacity="0.25"
     inkscape:showpageshadow="2"
     inkscape:pageopacity="0.0"
     inkscape:pagecheckerboard="0"
     inkscape:deskcolor="#d1d1d1"
     inkscape:document-units="mm"
     inkscape:zoom="18.061301"
     inkscape:cx="30.61795"
     inkscape:cy="10.630464"
     inkscape:window-width="1444"
     inkscape:window-height="1200"
     inkscape:window-x="0"
     inkscape:window-y="0"
     inkscape:window-maximized="0"
     inkscape:current-layer="layer1" />
  <defs
     id="defs1">
    <style
       type="text/css"
       id="style1">
   <![CDATA[
    .fil1 {fill:#FEFEFE}
    .fil2 {fill:black}
    .fil0 {fill:#01A1EE}
   ]]>
  </style>
  </defs>
  <g
     inkscape:label="Layer 1"
     inkscape:groupmode="layer"
     id="layer1">
    <rect
       style="fill:#2c86dc;fill-opacity:1;fill-rule:evenodd;stroke-width:0.605777;stroke-linecap:square;stroke-miterlimit:0;paint-order:markers stroke fill"
       id="rect1"
       width="4.2333336"
       height="4.2333331"
       x="0"
       y="0"
       inkscape:label="rect1" />
    <path
       id="rect7"
       style="display:inline;fill:#f4a000;fill-opacity:1;fill-rule:evenodd;stroke-width:0.0129656;stroke-linecap:square;stroke-miterlimit:0;paint-order:markers stroke fill"
       d="M -0.24628952,2.4726185 H 1.8336833 l -0.020052,0.6362606 -1.04989322,0.574511 -0.9755127,-0.5540044 z"
       sodipodi:nodetypes="cccccc"
       inkscape:label="rect7" />
    <path
       id="rect9"
       style="display:inline;fill:#ffffff;fill-rule:evenodd;stroke-width:0.0129656;stroke-linecap:square;stroke-miterlimit:0;paint-order:markers stroke fill"
       d="M -0.07270842,1.4735107 H 1.6601022 v 0.9991078 h -1.73281062 z" />
    <path
       id="rect8"
       style="fill:#ffffff;fill-opacity:1;fill-rule:evenodd;stroke-width:0.0128577;stroke-linecap:square;stroke-miterlimit:0;paint-order:markers stroke fill"
       d="m -0.50085922,3.3038382 0.6289587,-0.0059 0.5800951,0.3339226 0.52588552,-0.1263789 0.3015958,-0.2284756 0.449222,0.1052048 0.6123187,0.8726291 0.04689,0.9348202 h -3.6822112 l 0.023052,-0.5435988 z"
       sodipodi:nodetypes="ccccccccccc" />
    <path
       d="M -1.5660936,5.0204379 V 4.7068896 l 0.047317,-0.068862 c 0.063098,-0.091829 0.1264967,-0.1701331 0.277662,-0.3429639 0.45558293,-0.5208565 0.66104578,-0.8857269 0.73572948,-1.3064984 0.0222652,-0.1254489 0.0319163,-0.3029151 0.0378125,-0.6952912 0.003039,-0.2014024 0.009881,-0.4099899 0.0152371,-0.4635273 0.0608394,-0.6081759 0.3750216,-0.96562034 0.9349351,-1.06370272 0.1263387,-0.0221277 0.4437716,-0.0213922 0.56930432,0.001301 0.4411758,0.0798252 0.726338,0.31118452 0.8527975,0.69189812 0.063456,0.1910381 0.079794,0.3261841 0.079925,0.6611664 1.706e-4,0.4355024 0.031529,0.7105503 0.1072886,0.9410532 0.04197,0.1277019 0.1591198,0.3655007 0.2495262,0.5064778 0.130761,0.2039242 0.3173679,0.4420106 0.5719649,0.7297406 0.067838,0.076667 0.155671,0.1809052 0.1951822,0.231643 l 0.071846,0.092248 V 5.333979 H -1.5660846 Z M 2.5747821,5.18334 C 2.5903743,5.1587558 2.58961,4.8408119 2.5736951,4.7308074 2.4901396,4.1532802 2.149957,3.6649726 1.6414486,3.3926038 c -0.04334,-0.023211 -0.086453,-0.042274 -0.095811,-0.04236 -0.00936,-8.36e-5 -0.069844,0.036861 -0.1344233,0.082102 -0.1411536,0.098889 -0.2704872,0.177252 -0.3955282,0.2396706 -0.12805412,0.063916 -0.18133202,0.080198 -0.24198932,0.073939 -0.0989809,-0.010219 -0.3275838,-0.1252824 -0.5757194,-0.2897882 -0.0803142,-0.053245 -0.1520185,-0.096812 -0.1593424,-0.096812 -0.00733,0 -0.044959,0.017277 -0.083638,0.03839 -0.5224045,0.2851992 -0.86623065,0.8008643 -0.9290017,1.3932709 -0.0129657,0.1224456 -0.006329,0.3698761 0.0104691,0.390114 0.0100688,0.012133 0.22414316,0.013802 1.7711381,0.013802 1.39772032,0 1.76121872,-0.00239 1.76705892,-0.011595 z M 0.88893278,3.5853757 C 1.015782,3.5355219 1.2505492,3.3883949 1.4328452,3.2445069 1.5558287,3.1474347 1.7316072,2.9697463 1.7731761,2.9004862 1.8139816,2.8324873 1.8303384,2.7764646 1.8184862,2.745288 1.7904968,2.6716742 1.6426053,2.6204884 1.3540501,2.5845553 1.194606,2.5646991 0.65133338,2.5563263 0.45289718,2.5706728 c -0.3722031,0.026903 -0.620997,0.090362 -0.6615276,0.1687332 -0.02924,0.056543 -0.00612,0.131299 0.072961,0.2358708 0.1291758,0.1708192 0.4591518,0.4242573 0.7295364,0.5603119 0.1592775,0.080145 0.2002718,0.087065 0.2950723,0.049804 z M 0.47131298,2.3951299 c 0.1266268,-0.00692 0.1661285,-0.012145 0.1788661,-0.023667 0.00899,-0.00813 0.031398,-0.043441 0.0498,-0.078458 0.147281,-0.2802671 0.054533,-0.6752668 -0.1863196,-0.7935311 -0.048155,-0.023646 -0.064076,-0.026624 -0.1422936,-0.026624 -0.082667,0 -0.091655,0.00195 -0.1465026,0.031681 -0.076832,0.04166 -0.1418581,0.1141855 -0.1864955,0.2080034 -0.048338,0.1015863 -0.060738,0.1586468 -0.060738,0.2794608 0,0.056086 0.00558,0.1249209 0.012408,0.1529641 0.016252,0.066802 0.075701,0.1899349 0.1136201,0.2353326 l 0.03008,0.036014 0.087531,-0.00615 c 0.048142,-0.00336 0.1606679,-0.010144 0.250045,-0.015027 z m -0.2065662,-0.39906 C 0.22062408,1.983118 0.16689658,1.9324712 0.14312668,1.8814117 0.06219078,1.7075982 0.20606488,1.5010319 0.37318438,1.5511019 c 0.05086,0.015237 0.1140366,0.075821 0.1342652,0.1287497 0.019378,0.050713 0.021001,0.1303346 0.00369,0.1812578 -0.00673,0.019787 -0.02737,0.052769 -0.045876,0.073295 -0.055905,0.062009 -0.125959,0.083554 -0.2005127,0.061667 z M 1.461111,2.375319 C 1.512596,2.327862 1.5714865,2.2124354 1.5904447,2.1217878 c 0.05193,-0.2481911 -0.05547,-0.5117063 -0.2451969,-0.601612 -0.052238,-0.024754 -0.07114,-0.028783 -0.1350905,-0.028783 -0.065241,0 -0.081905,0.00371 -0.1358969,0.030294 -0.11011542,0.054209 -0.20538892,0.1835291 -0.24063582,0.3266202 -0.00714,0.029007 -0.012145,0.094948 -0.011582,0.1529637 7.97e-4,0.083151 0.00548,0.115799 0.025352,0.1768637 0.022859,0.07023 0.079056,0.1712362 0.1087345,0.1954416 0.00817,0.00667 0.094244,0.014911 0.22641462,0.02169 0.1172724,0.00602 0.2149657,0.012647 0.2170886,0.014737 0.00908,0.00896 0.02212,0.00159 0.061489,-0.034688 z M 1.174336,1.974136 C 1.154531,1.966846 1.122278,1.945212 1.102667,1.926062 1.006318,1.831975 1.022523,1.6458781 1.133464,1.5724555 c 0.031028,-0.020534 0.048583,-0.02516 0.095997,-0.025287 0.076145,-2.062e-4 0.1266263,0.03246 0.1646075,0.1065094 0.023092,0.045021 0.025784,0.059083 0.023175,0.1211848 -0.00246,0.059097 -0.00743,0.077504 -0.031137,0.1158816 -0.046597,0.075411 -0.136861,0.1109497 -0.2117761,0.083382 z"
       fill="#1f1f1f"
       id="path4"
       style="display:inline;stroke-width:0.00927055" />
    <path
       d="m 0.40575168,1.6673551 c 0.00512,0.028468 -0.01381,0.055695 -0.042278,0.060813 -0.028468,0.00512 -0.055696,-0.01381 -0.060814,-0.042278 -0.00512,-0.028468 0.01381,-0.055696 0.042279,-0.060815 0.027652,-0.00497 0.0543,0.012759 0.060394,0.040188"
       fill="#ffffff"
       fill-rule="evenodd"
       opacity="0.92"
       stroke-opacity="0"
       id="path5"
       style="stroke-width:0.00927055" />
    <path
       d="m 1.287381,1.6437984 c 0.00512,0.028468 -0.01381,0.055695 -0.042278,0.060813 -0.028468,0.00512 -0.055696,-0.01381 -0.060814,-0.042278 -0.00512,-0.028468 0.01381,-0.055695 0.042279,-0.060814 0.027652,-0.00497 0.0543,0.012759 0.060394,0.040188"
       fill="#ffffff"
       fill-rule="evenodd"
       opacity="0.92"
       stroke-opacity="0"
       id="path6"
       style="stroke-width:0.00927055" />
  </g>
</svg>
