<?xml version="1.0" encoding="UTF-8" standalone="no"?>
<svg
   version="1.1"
   viewBox="0 0 600 600"
   id="svg6"
   sodipodi:docname="penguin-transparent.svg"
   inkscape:export-filename="penguin-transparent.svg"
   inkscape:export-xdpi="96"
   inkscape:export-ydpi="96"
   inkscape:version="1.3.2 (091e20ef0f, 2023-11-25, custom)"
   xmlns:inkscape="http://www.inkscape.org/namespaces/inkscape"
   xmlns:sodipodi="http://sodipodi.sourceforge.net/DTD/sodipodi-0.dtd"
   xmlns="http://www.w3.org/2000/svg"
   xmlns:svg="http://www.w3.org/2000/svg">
  <defs
     id="defs6" />
  <sodipodi:namedview
     id="namedview6"
     pagecolor="#ffffff"
     bordercolor="#000000"
     borderopacity="0.25"
     inkscape:showpageshadow="2"
     inkscape:pageopacity="0.0"
     inkscape:pagecheckerboard="0"
     inkscape:deskcolor="#d1d1d1"
     inkscape:zoom="1.4933333"
     inkscape:cx="300"
     inkscape:cy="300"
     inkscape:window-width="3832"
     inkscape:window-height="1100"
     inkscape:window-x="0"
     inkscape:window-y="0"
     inkscape:window-maximized="1"
     inkscape:current-layer="g6" />
  <g
     transform="scale(1.1719)"
     id="g6">
    <path
       id="rect7"
       style="fill:#f4a000;fill-rule:evenodd;stroke-width:1.639;stroke-linecap:square;stroke-miterlimit:0;paint-order:markers stroke fill;fill-opacity:1"
       d="m 166.83786,238.30653 h 262.93161 l -2.5347,80.43039 L 294.51663,391.36146 171.201,321.32917 Z"
       sodipodi:nodetypes="cccccc"
       transform="scale(0.85331513)"
       inkscape:label="rect7" />
    <path
       id="rect9"
       style="display:inline;fill:#ffffff;fill-rule:evenodd;stroke-width:1.39858;stroke-linecap:square;stroke-miterlimit:0;paint-order:markers stroke fill"
       d="M 161.0892,95.578318 H 348.00487 V 203.35057 H 161.0892 Z" />
    <path
       id="rect8"
       style="fill:#ffffff;fill-rule:evenodd;stroke-width:1.38694;stroke-linecap:square;stroke-miterlimit:0;paint-order:markers stroke fill;fill-opacity:1"
       d="m 114.90525,293.01299 67.84481,-0.63739 62.57399,36.01972 56.72645,-13.6323 32.53271,-24.64531 48.4569,11.34823 66.04989,94.12918 5.05797,100.83765 H 56.953369 l 2.486554,-58.63716 z"
       sodipodi:nodetypes="ccccccccccc" />
    <path
       d="m 0,478.18 v -33.822 l 5.104,-7.4281 c 6.8063,-9.9055 13.645,-18.352 29.951,-36.995 49.143,-56.184 71.306,-95.542 79.362,-140.93 2.4018,-13.532 3.4428,-32.675 4.0788,-75 0.3264,-21.725 1.0661,-44.225 1.6438,-50 6.5627,-65.603 40.453,-104.16 100.85,-114.74 13.628,-2.387 47.869,-2.3076 61.41,0.14249 47.589,8.6106 78.349,33.567 91.99,74.634 6.8449,20.607 8.6072,35.185 8.6214,71.319 0.0185,46.977 3.4009,76.646 11.573,101.51 4.5273,13.775 17.164,39.426 26.916,54.633 14.105,21.997 34.234,47.679 61.697,78.716 7.3175,8.2699 16.792,19.514 21.054,24.987 l 7.75,9.9506 v 76.846 h -512 z m 446.67,17.572 c 1.6818,-2.6519 1.5993,-36.948 -0.11737,-48.814 -9.013,-62.297 -45.708,-114.97 -100.56,-144.35 -4.675,-2.5039 -9.3256,-4.5601 -10.335,-4.5693 -1.009,-0.009 -7.534,3.9761 -14.5,8.8562 -15.226,10.667 -29.177,19.12 -42.665,25.853 -13.813,6.8946 -19.56,8.6508 -26.103,7.9756 -10.677,-1.1019 -35.336,-13.514 -62.102,-31.259 -8.6634,-5.7434 -16.398,-10.443 -17.188,-10.443 -0.79,0 -4.8498,1.8635 -9.0218,4.1411 -56.351,30.764 -93.439,86.388 -100.21,150.29 -1.3987,13.208 -0.68226,39.898 1.1296,42.081 1.0863,1.3089 24.178,1.4889 191.05,1.4889 150.77,0 189.98,-0.25717 190.61,-1.25 z M 264.82,323.382 c 13.683,-5.3776 39.007,-21.248 58.671,-36.769 13.266,-10.471 32.227,-29.638 36.711,-37.109 4.4016,-7.3349 6.166,-13.378 4.8875,-16.741 -3.019,-7.9406 -18.972,-13.462 -50.098,-17.338 -17.199,-2.1419 -75.801,-3.0448 -97.206,-1.4976 -40.149,2.9019 -66.986,9.7472 -71.358,18.201 -3.154,6.0992 -0.6597,14.163 7.8702,25.443 13.934,18.426 49.528,45.764 78.694,60.44 17.181,8.6452 21.603,9.3916 31.829,5.3722 z m -45.048,-128.39 c 13.659,-0.74593 17.92,-1.3097 19.294,-2.5528 0.9696,-0.87747 3.3869,-4.6859 5.3718,-8.4631 15.887,-30.232 5.8824,-72.84 -20.098,-85.597 -5.1944,-2.5506 -6.9118,-2.8719 -15.349,-2.8719 -8.9172,0 -9.8866,0.20965 -15.803,3.4174 -8.2878,4.4938 -15.302,12.317 -20.117,22.437 -5.2141,10.958 -6.5517,17.113 -6.5517,30.145 0,6.05 0.60215,13.475 1.3381,16.5 1.7532,7.2059 8.1658,20.488 12.256,25.385 l 3.2448,3.8847 9.4418,-0.66369 c 5.193,-0.36503 17.331,-1.0945 26.972,-1.6211 z M 197.49,151.946 c -4.7595,-1.397 -10.555,-6.8603 -13.119,-12.368 -8.7304,-18.749 6.7891,-41.031 24.816,-35.63 5.4861,1.6437 12.301,8.1787 14.483,13.888 2.0904,5.4704 2.2653,14.059 0.39808,19.552 -0.7256,2.1344 -2.9525,5.6922 -4.9486,7.9063 -6.0304,6.6888 -13.587,9.0128 -21.629,6.652 z m 129.05,40.909 c 5.5536,-5.1191 11.906,-17.57 13.951,-27.348 5.6016,-26.772 -5.9834,-55.197 -26.449,-64.895 -5.6348,-2.6702 -7.6737,-3.1046 -14.572,-3.1046 -7.0374,0 -8.835,0.40071 -14.659,3.2677 -11.878,5.8474 -22.155,19.797 -25.957,35.232 -0.77075,3.1291 -1.3094,10.242 -1.2496,16.5 0.0857,8.9694 0.59055,12.491 2.7348,19.078 2.466,7.5756 8.5276,18.471 11.729,21.082 0.88175,0.71914 10.166,1.6085 24.423,2.3396 12.65,0.64866 23.188,1.3641 23.417,1.5898 0.98023,0.96559 2.3863,0.17236 6.6327,-3.7418 z M 295.606,149.58 c -2.1365,-0.78636 -5.6154,-3.1199 -7.7308,-5.1856 -10.393,-10.149 -8.645,-30.223 3.3221,-38.143 3.3472,-2.2151 5.2406,-2.7138 10.355,-2.7276 8.2137,-0.0221 13.659,3.5013 17.756,11.489 2.491,4.8563 2.781,6.3732 2.5,13.072 -0.26745,6.3747 -0.801,8.3602 -3.3589,12.5 -5.0263,8.1345 -14.763,11.968 -22.844,8.9944 z"
       fill="#1f1f1f"
       id="path4"
       style="display:inline" />
    <path
       transform="translate(261.75 25.422)"
       d="m-49.05 91.066c0.55212 3.0708-1.4897 6.0078-4.5605 6.5599-3.0708 0.55212-6.0078-1.4897-6.5599-4.5605-0.55212-3.0708 1.4897-6.0078 4.5605-6.5599 2.9828-0.53629 5.8573 1.3765 6.5146 4.335"
       fill="#fff"
       fill-rule="evenodd"
       opacity=".92"
       stroke-opacity="0"
       id="path5" />
    <path
       transform="translate(356.85 22.881)"
       d="m-49.05 91.066c0.55212 3.0708-1.4897 6.0078-4.5605 6.5599-3.0708 0.55212-6.0078-1.4897-6.5599-4.5605-0.55212-3.0708 1.4897-6.0078 4.5605-6.5599 2.9828-0.53629 5.8573 1.3765 6.5146 4.335"
       fill="#fff"
       fill-rule="evenodd"
       opacity=".92"
       stroke-opacity="0"
       id="path6" />
  </g>
</svg>
